<svg width="801" height="737" viewBox="0 0 801 737" fill="none" xmlns="http://www.w3.org/2000/svg">
<rect width="801" height="737" fill="#232323"/>
<path d="M350.297 347.076C350.232 347.988 350.069 348.85 349.809 349.664C349.548 350.478 349.418 351.292 349.418 352.105C349.418 352.496 349.451 353.001 349.516 353.619C349.581 354.238 349.613 354.905 349.613 355.621C349.613 356.858 349.32 357.965 348.734 358.941C348.148 359.918 347.4 360.829 346.488 361.676C345.577 362.522 344.551 363.352 343.412 364.166C342.305 364.947 341.199 365.761 340.092 366.607C339.311 367.226 338.66 367.844 338.139 368.463C337.618 369.081 337.016 369.635 336.332 370.123C335.648 370.611 334.786 371.002 333.744 371.295C332.702 371.62 331.254 371.783 329.398 371.783C328.389 371.783 327.348 371.702 326.273 371.539C325.232 371.409 324.19 371.246 323.148 371.051C322.107 370.855 321.098 370.676 320.121 370.514C319.177 370.383 318.298 370.318 317.484 370.318C316.801 370.318 316.15 370.383 315.531 370.514C314.913 370.644 314.294 370.709 313.676 370.709C313.415 370.709 312.96 370.595 312.309 370.367C311.658 370.172 310.958 369.879 310.209 369.488C309.46 369.13 308.712 368.691 307.963 368.17C307.214 367.617 306.596 366.998 306.107 366.314C305.652 365.696 305.359 365.045 305.229 364.361C305.131 363.645 304.919 362.962 304.594 362.311C304.138 361.497 303.536 360.715 302.787 359.967C302.071 359.218 301.436 358.323 300.883 357.281C300.395 356.337 299.971 355.198 299.613 353.863C299.255 352.529 298.848 351.21 298.393 349.908C297.807 348.183 297.221 346.637 296.635 345.27C296.081 343.902 295.805 342.747 295.805 341.803C295.805 340.729 295.951 339.589 296.244 338.385C296.537 337.148 296.928 336.008 297.416 334.967C297.904 333.893 298.458 333.014 299.076 332.33C299.727 331.646 300.395 331.305 301.078 331.305C301.436 331.305 301.811 331.37 302.201 331.5C302.592 331.63 302.999 331.695 303.422 331.695C303.975 331.63 304.431 331.467 304.789 331.207C305.18 330.947 305.587 330.816 306.01 330.816C306.433 330.816 307.035 330.898 307.816 331.061C308.598 331.191 309.395 331.37 310.209 331.598C311.055 331.826 311.837 332.053 312.553 332.281C313.301 332.509 313.855 332.721 314.213 332.916C314.734 333.176 315.287 333.632 315.873 334.283C316.459 334.934 316.996 335.65 317.484 336.432C317.973 337.213 318.38 338.027 318.705 338.873C319.031 339.719 319.193 340.468 319.193 341.119C319.193 341.477 319.177 341.852 319.145 342.242C319.112 342.6 319.096 342.958 319.096 343.316C319.096 343.967 319.21 344.635 319.438 345.318C319.665 345.969 319.861 346.702 320.023 347.516C320.154 348.427 320.235 349.29 320.268 350.104C320.333 350.917 320.414 351.682 320.512 352.398C320.609 353.082 320.74 353.733 320.902 354.352C321.098 354.97 321.423 355.556 321.879 356.109C322.53 356.956 323.441 357.639 324.613 358.16C325.785 358.648 326.941 358.893 328.08 358.893C328.796 358.893 329.366 358.779 329.789 358.551C330.245 358.323 330.635 358.046 330.961 357.721C331.286 357.395 331.596 357.07 331.889 356.744C332.214 356.386 332.589 356.077 333.012 355.816C333.663 355.426 334.281 355.133 334.867 354.938C335.453 354.71 335.974 354.433 336.43 354.107C336.885 353.749 337.243 353.277 337.504 352.691C337.764 352.105 337.895 351.243 337.895 350.104C337.895 349.192 337.715 348.232 337.357 347.223C337.032 346.181 336.82 345.139 336.723 344.098C336.625 343.186 336.56 342.421 336.527 341.803C336.495 341.152 336.43 340.549 336.332 339.996C336.267 339.41 336.137 338.84 335.941 338.287C335.746 337.701 335.404 337.034 334.916 336.285C334.786 336.155 334.493 335.829 334.037 335.309C333.581 334.755 333.044 334.186 332.426 333.6C331.84 333.014 331.205 332.493 330.521 332.037C329.838 331.549 329.203 331.305 328.617 331.305C328.357 331.305 328.096 331.321 327.836 331.354C327.608 331.386 327.364 331.402 327.104 331.402C326.062 331.402 324.988 331.174 323.881 330.719C322.807 330.263 321.7 329.71 320.561 329.059C319.421 328.375 318.266 327.659 317.094 326.91C315.922 326.161 314.75 325.494 313.578 324.908C312.602 324.42 311.495 323.964 310.258 323.541C309.053 323.118 307.914 322.646 306.84 322.125C305.766 321.604 304.87 321.002 304.154 320.318C303.438 319.602 303.08 318.723 303.08 317.682C303.08 317.486 303.113 317.096 303.178 316.51C303.275 315.924 303.389 315.257 303.52 314.508C303.65 313.727 303.812 312.896 304.008 312.018C304.203 311.106 304.431 310.243 304.691 309.43C304.952 308.583 305.212 307.818 305.473 307.135C305.766 306.451 306.075 305.914 306.4 305.523C306.856 304.97 307.426 304.433 308.109 303.912C308.826 303.391 309.525 302.936 310.209 302.545C310.893 302.122 311.495 301.796 312.016 301.568C312.569 301.308 312.927 301.178 313.09 301.178C313.383 301.178 313.66 301.21 313.92 301.275C314.213 301.308 314.506 301.324 314.799 301.324C315.417 301.324 315.938 301.259 316.361 301.129C316.817 300.966 317.208 300.771 317.533 300.543C317.891 300.315 318.233 300.104 318.559 299.908C318.884 299.68 319.258 299.485 319.682 299.322C320.235 299.094 320.902 298.98 321.684 298.98C322.497 298.948 323.295 298.85 324.076 298.688C324.988 298.492 326.127 298.264 327.494 298.004C328.894 297.711 330.294 297.451 331.693 297.223C333.126 296.962 334.46 296.751 335.697 296.588C336.934 296.425 337.862 296.36 338.48 296.393C338.806 296.393 339.148 296.474 339.506 296.637C339.896 296.799 340.189 297.158 340.385 297.711C340.808 298.004 341.296 298.215 341.85 298.346C342.403 298.476 342.859 298.688 343.217 298.98C343.705 299.404 344.21 299.957 344.73 300.641C345.284 301.324 345.805 301.91 346.293 302.398C346.781 302.887 347.204 303.326 347.562 303.717C347.953 304.075 348.262 304.433 348.49 304.791C348.751 305.117 348.93 305.475 349.027 305.865C349.158 306.223 349.223 306.663 349.223 307.184C349.223 308.225 349.109 309.234 348.881 310.211C348.653 311.188 348.262 312.066 347.709 312.848C347.188 313.596 346.472 314.215 345.561 314.703C344.682 315.159 343.559 315.387 342.191 315.387C341.378 315.387 340.499 315.305 339.555 315.143C338.611 314.947 337.764 314.703 337.016 314.41C336.625 314.28 336.234 314.068 335.844 313.775C335.453 313.482 335.062 313.189 334.672 312.896C334.281 312.571 333.874 312.262 333.451 311.969C333.028 311.676 332.572 311.448 332.084 311.285C331.596 311.122 330.961 310.976 330.18 310.846C329.398 310.683 328.585 310.553 327.738 310.455C326.924 310.357 326.127 310.276 325.346 310.211C324.564 310.146 323.913 310.113 323.393 310.113C322.709 310.113 322.042 310.162 321.391 310.26C320.74 310.325 320.154 310.488 319.633 310.748C319.145 310.976 318.738 311.301 318.412 311.725C318.087 312.148 317.924 312.701 317.924 313.385C317.924 313.775 317.989 314.117 318.119 314.41C318.282 314.703 318.493 314.98 318.754 315.24C319.047 315.468 319.405 315.712 319.828 315.973C320.251 316.233 320.74 316.542 321.293 316.9C321.781 317.226 322.253 317.584 322.709 317.975C323.197 318.365 323.669 318.74 324.125 319.098C324.613 319.456 325.102 319.798 325.59 320.123C326.078 320.449 326.583 320.709 327.104 320.904C327.722 321.1 328.357 321.23 329.008 321.295C329.691 321.327 330.294 321.393 330.814 321.49C332.735 321.946 334.525 322.613 336.186 323.492C337.878 324.339 339.441 325.331 340.873 326.471C342.305 327.61 343.591 328.847 344.73 330.182C345.902 331.484 346.928 332.818 347.807 334.186C348.23 334.869 348.572 335.488 348.832 336.041C349.092 336.562 349.288 337.099 349.418 337.652C349.548 338.173 349.63 338.743 349.662 339.361C349.695 339.98 349.711 340.729 349.711 341.607C349.711 342.617 349.809 343.593 350.004 344.537C350.199 345.481 350.297 346.327 350.297 347.076ZM401.371 358.502C401.176 359.381 400.606 360.162 399.662 360.846C398.751 361.497 397.628 362.05 396.293 362.506C394.991 362.929 393.559 363.255 391.996 363.482C390.434 363.71 388.92 363.824 387.455 363.824C386.348 363.824 385.469 363.596 384.818 363.141C384.2 362.685 383.728 362.05 383.402 361.236C383.077 360.39 382.865 359.381 382.768 358.209C382.702 357.005 382.67 355.67 382.67 354.205C382.67 352.643 382.702 351.08 382.768 349.518C382.833 347.955 382.865 346.523 382.865 345.221C382.865 344.765 382.816 344.26 382.719 343.707C382.621 343.121 382.507 342.535 382.377 341.949C382.279 341.363 382.182 340.826 382.084 340.338C381.986 339.817 381.938 339.378 381.938 339.02C381.938 338.564 381.986 338.043 382.084 337.457C382.182 336.839 382.23 336.253 382.23 335.699C382.23 334.885 382.035 334.251 381.645 333.795C381.254 333.339 380.587 333.111 379.643 333.111C379.089 333.111 378.52 333.193 377.934 333.355C377.38 333.486 376.827 333.665 376.273 333.893C375.753 334.088 375.281 334.299 374.857 334.527C374.434 334.723 374.092 334.885 373.832 335.016C373.148 335.309 372.481 335.618 371.83 335.943C371.212 336.269 370.658 336.627 370.17 337.018C369.682 337.376 369.291 337.783 368.998 338.238C368.705 338.661 368.559 339.15 368.559 339.703C368.559 340.354 368.64 341.152 368.803 342.096C368.998 343.007 369.145 343.935 369.242 344.879C369.34 345.921 369.372 346.946 369.34 347.955C369.307 348.964 369.372 349.876 369.535 350.689C369.665 351.406 369.796 352.024 369.926 352.545C370.056 353.066 370.17 353.57 370.268 354.059C370.398 354.514 370.495 354.986 370.561 355.475C370.626 355.963 370.658 356.533 370.658 357.184C370.658 357.77 370.707 358.323 370.805 358.844C370.935 359.365 371.065 359.902 371.195 360.455C371.358 361.008 371.505 361.578 371.635 362.164C371.765 362.75 371.83 363.401 371.83 364.117C371.83 365.484 371.472 366.542 370.756 367.291C370.072 368.04 369.145 368.593 367.973 368.951C366.833 369.309 365.515 369.521 364.018 369.586C362.52 369.651 360.99 369.684 359.428 369.684C358.646 369.684 358.044 369.602 357.621 369.439C357.23 369.277 356.938 369 356.742 368.609C356.547 368.219 356.433 367.698 356.4 367.047C356.368 366.363 356.352 365.517 356.352 364.508C356.352 363.759 356.368 362.994 356.4 362.213C356.465 361.399 356.531 360.634 356.596 359.918C356.661 359.202 356.726 358.551 356.791 357.965C356.856 357.379 356.905 356.923 356.938 356.598C356.97 355.882 357.019 355.019 357.084 354.01C357.182 353.001 357.247 351.975 357.279 350.934C357.344 349.859 357.393 348.85 357.426 347.906C357.491 346.93 357.523 346.132 357.523 345.514C357.523 345.09 357.312 344.749 356.889 344.488C356.465 344.195 355.993 343.886 355.473 343.561C354.984 343.202 354.529 342.779 354.105 342.291C353.682 341.77 353.471 341.07 353.471 340.191C353.471 339.41 353.585 338.792 353.812 338.336C354.04 337.88 354.317 337.538 354.643 337.311C355.001 337.05 355.375 336.855 355.766 336.725C356.156 336.562 356.514 336.383 356.84 336.188C357.198 335.992 357.491 335.732 357.719 335.406C357.947 335.048 358.061 334.544 358.061 333.893C358.061 332.786 357.898 331.565 357.572 330.23C357.279 328.896 357.133 327.415 357.133 325.787C357.133 324.225 357.198 322.63 357.328 321.002C357.458 319.374 357.523 317.779 357.523 316.217C357.523 315.077 357.41 313.906 357.182 312.701C356.954 311.497 356.84 310.39 356.84 309.381C356.84 308.893 356.954 308.339 357.182 307.721C357.41 307.102 357.735 306.516 358.158 305.963C358.581 305.377 359.102 304.889 359.721 304.498C360.339 304.107 361.055 303.912 361.869 303.912C362.618 303.912 363.253 304.14 363.773 304.596C364.294 305.019 364.717 305.589 365.043 306.305C365.401 306.988 365.661 307.786 365.824 308.697C366.02 309.576 366.166 310.488 366.264 311.432C366.394 312.343 366.475 313.255 366.508 314.166C366.573 315.045 366.654 315.826 366.752 316.51C366.882 317.551 366.996 318.788 367.094 320.221C367.224 321.62 367.354 322.971 367.484 324.273C367.647 325.543 367.842 326.633 368.07 327.545C368.298 328.456 368.591 328.912 368.949 328.912C369.275 328.912 369.698 328.766 370.219 328.473C370.772 328.147 371.342 327.789 371.928 327.398C372.514 327.008 373.1 326.617 373.686 326.227C374.271 325.836 374.76 325.559 375.15 325.396C376.192 324.941 377.462 324.55 378.959 324.225C380.456 323.867 382.279 323.688 384.428 323.688C385.665 323.688 386.723 323.785 387.602 323.98C388.48 324.143 389.229 324.387 389.848 324.713C390.499 325.038 391.068 325.413 391.557 325.836C392.045 326.259 392.517 326.731 392.973 327.252C393.461 327.74 393.965 328.261 394.486 328.814C395.04 329.335 395.691 329.856 396.439 330.377C396.732 330.572 397.025 330.751 397.318 330.914C397.611 331.044 397.888 331.207 398.148 331.402C398.409 331.565 398.62 331.777 398.783 332.037C398.946 332.265 399.027 332.59 399.027 333.014C399.027 333.404 398.995 333.844 398.93 334.332C398.865 334.788 398.832 335.243 398.832 335.699C398.832 336.383 398.946 337.115 399.174 337.896C399.402 338.678 399.646 339.492 399.906 340.338C400.199 341.184 400.46 342.079 400.688 343.023C400.915 343.935 401.029 344.863 401.029 345.807C401.029 346.132 400.964 346.523 400.834 346.979C400.704 347.434 400.557 347.874 400.395 348.297C400.264 348.72 400.134 349.094 400.004 349.42C399.906 349.713 399.857 349.876 399.857 349.908C399.857 350.396 400.02 350.868 400.346 351.324C400.671 351.747 400.834 352.236 400.834 352.789C400.834 353.115 400.818 353.424 400.785 353.717C400.753 353.977 400.736 354.238 400.736 354.498C400.736 355.051 400.85 355.556 401.078 356.012C401.339 356.467 401.469 357.005 401.469 357.623C401.469 357.786 401.469 357.932 401.469 358.062C401.469 358.193 401.436 358.339 401.371 358.502ZM451.664 338.482C451.729 339.231 451.778 339.996 451.811 340.777C451.843 341.526 451.859 342.307 451.859 343.121C451.859 345.432 451.745 347.776 451.518 350.152C451.29 352.496 451.029 354.775 450.736 356.988C450.639 357.704 450.508 358.437 450.346 359.186C450.215 359.902 450.15 360.536 450.15 361.09C450.15 362.294 450.264 363.466 450.492 364.605C450.72 365.712 450.834 366.738 450.834 367.682C450.834 367.877 450.704 368.316 450.443 369C450.183 369.684 449.76 370.383 449.174 371.1C448.62 371.816 447.888 372.451 446.977 373.004C446.098 373.59 445.023 373.883 443.754 373.883C442.289 373.883 441.296 373.46 440.775 372.613C440.287 371.767 440.043 370.693 440.043 369.391C440.043 368.479 440.124 367.503 440.287 366.461C440.45 365.387 440.629 364.296 440.824 363.189C440.076 363.352 439.327 363.661 438.578 364.117C437.862 364.573 437.178 364.996 436.527 365.387C435.095 366.233 433.663 367.128 432.23 368.072C430.831 369.016 429.301 369.879 427.641 370.66C425.98 371.441 424.158 372.092 422.172 372.613C420.219 373.134 417.973 373.395 415.434 373.395C415.368 373.395 415.108 373.395 414.652 373.395C414.229 373.427 413.725 373.427 413.139 373.395C412.553 373.362 411.934 373.281 411.283 373.15C410.665 373.02 410.111 372.809 409.623 372.516C408.907 371.799 408.207 370.904 407.523 369.83C406.872 368.788 406.286 367.763 405.766 366.754C405.277 365.712 404.887 364.801 404.594 364.02C404.301 363.238 404.154 362.766 404.154 362.604C404.089 362.441 404.057 362.294 404.057 362.164C404.057 362.001 404.057 361.839 404.057 361.676C404.057 360.992 404.105 360.292 404.203 359.576C404.301 358.827 404.415 358.128 404.545 357.477C404.675 356.793 404.789 356.223 404.887 355.768C404.984 355.279 405.033 354.954 405.033 354.791C405.033 353.977 404.968 353.196 404.838 352.447C404.708 351.666 404.643 350.82 404.643 349.908C404.643 349.485 404.659 349.046 404.691 348.59C404.757 348.102 404.87 347.597 405.033 347.076C405.033 347.044 405.115 346.832 405.277 346.441C405.44 346.051 405.619 345.628 405.814 345.172C406.042 344.716 406.254 344.277 406.449 343.854C406.677 343.43 406.84 343.186 406.938 343.121C407.165 342.926 407.475 342.763 407.865 342.633C408.256 342.503 408.695 342.372 409.184 342.242C409.672 342.112 410.16 341.982 410.648 341.852C411.169 341.721 411.674 341.542 412.162 341.314C412.911 340.956 413.578 340.501 414.164 339.947C414.783 339.394 415.336 339.02 415.824 338.824C416.15 338.661 416.589 338.531 417.143 338.434C417.729 338.336 418.331 338.157 418.949 337.896C419.372 337.766 419.893 337.587 420.512 337.359C421.13 337.099 421.781 336.871 422.465 336.676C423.181 336.448 423.897 336.253 424.613 336.09C425.329 335.895 426.013 335.764 426.664 335.699C426.957 335.699 427.315 335.748 427.738 335.846C428.194 335.943 428.731 335.992 429.35 335.992C429.805 335.992 430.359 335.895 431.01 335.699C431.661 335.504 432.442 335.406 433.354 335.406C434.265 335.406 435.144 335.471 435.99 335.602C436.837 335.732 437.488 335.797 437.943 335.797C438.301 335.797 438.513 335.699 438.578 335.504C438.676 335.276 438.725 335.016 438.725 334.723C438.725 334.234 438.627 333.665 438.432 333.014C438.236 332.363 438.008 331.728 437.748 331.109C437.488 330.491 437.243 329.954 437.016 329.498C436.788 329.042 436.625 328.749 436.527 328.619C436.039 328.001 435.486 327.529 434.867 327.203C434.281 326.878 433.744 326.715 433.256 326.715C432.735 326.715 432.214 326.78 431.693 326.91C431.205 327.04 430.652 327.105 430.033 327.105C429.577 327.105 429.105 327.073 428.617 327.008C428.161 326.943 427.706 326.91 427.25 326.91C426.143 326.91 424.857 327.187 423.393 327.74C421.96 328.294 420.512 328.928 419.047 329.645C417.615 330.361 416.247 331.044 414.945 331.695C413.676 332.314 412.65 332.721 411.869 332.916C411.446 333.014 411.007 333.111 410.551 333.209C410.095 333.274 409.656 333.307 409.232 333.307C408.972 333.307 408.598 333.176 408.109 332.916C407.654 332.623 407.198 332.265 406.742 331.842C406.286 331.419 405.88 330.947 405.521 330.426C405.196 329.872 405.033 329.335 405.033 328.814C405.033 328.033 405.245 327.398 405.668 326.91C406.091 326.389 406.612 325.95 407.23 325.592C407.849 325.234 408.516 324.924 409.232 324.664C409.981 324.371 410.648 324.046 411.234 323.688C411.983 323.232 412.862 322.695 413.871 322.076C414.88 321.458 415.743 320.872 416.459 320.318C417.208 319.7 417.745 319.146 418.07 318.658C418.396 318.137 418.786 317.747 419.242 317.486C419.698 317.226 420.414 316.982 421.391 316.754C422.367 316.526 423.279 316.282 424.125 316.021C424.385 315.924 424.743 315.777 425.199 315.582C425.688 315.387 426.176 315.208 426.664 315.045C427.185 314.882 427.673 314.736 428.129 314.605C428.617 314.475 428.992 314.41 429.252 314.41H429.447C430.066 314.638 430.766 314.817 431.547 314.947C432.328 315.045 433.142 315.143 433.988 315.24C434.867 315.338 435.73 315.452 436.576 315.582C437.455 315.68 438.285 315.826 439.066 316.021C439.327 316.087 439.571 316.233 439.799 316.461C440.027 316.656 440.271 316.803 440.531 316.9C441.736 317.258 442.745 317.633 443.559 318.023C444.372 318.382 445.089 318.967 445.707 319.781C446.326 320.562 446.895 321.702 447.416 323.199C447.969 324.664 448.572 326.666 449.223 329.205C449.353 329.791 449.597 330.328 449.955 330.816C450.313 331.305 450.574 331.793 450.736 332.281C450.997 333.095 451.192 334.088 451.322 335.26C451.485 336.399 451.599 337.473 451.664 338.482ZM439.945 351.52C440.108 351.357 440.206 350.999 440.238 350.445C440.303 349.859 440.336 349.208 440.336 348.492C440.336 347.646 440.32 346.962 440.287 346.441C440.255 345.888 440.189 345.465 440.092 345.172C439.994 344.879 439.864 344.684 439.701 344.586C439.538 344.456 439.327 344.391 439.066 344.391C438.871 344.391 438.692 344.407 438.529 344.439C438.399 344.472 438.269 344.505 438.139 344.537C438.008 344.602 437.878 344.651 437.748 344.684C437.227 344.618 436.739 344.586 436.283 344.586C435.86 344.586 435.421 344.586 434.965 344.586C434.053 344.586 433.207 344.635 432.426 344.732C431.677 344.83 430.928 344.96 430.18 345.123C429.464 345.286 428.747 345.465 428.031 345.66C427.315 345.855 426.55 346.035 425.736 346.197C424.564 346.49 423.49 346.686 422.514 346.783C421.537 346.881 420.691 347.076 419.975 347.369C419.258 347.662 418.705 348.134 418.314 348.785C417.924 349.404 417.729 350.38 417.729 351.715C417.729 353.082 418.087 354.01 418.803 354.498C419.519 354.954 420.561 355.182 421.928 355.182C422.351 355.182 422.839 355.117 423.393 354.986C423.946 354.824 424.532 354.645 425.15 354.449C425.801 354.254 426.452 354.059 427.104 353.863C427.787 353.635 428.471 353.44 429.154 353.277C429.643 353.18 430.163 353.082 430.717 352.984C431.303 352.854 431.872 352.74 432.426 352.643C433.012 352.545 433.549 352.447 434.037 352.35C434.558 352.252 434.997 352.171 435.355 352.105C435.583 352.073 435.941 352.04 436.43 352.008C436.918 351.943 437.406 351.894 437.895 351.861C438.383 351.796 438.822 351.747 439.213 351.715C439.636 351.65 439.88 351.585 439.945 351.52ZM501.908 348.004C501.908 349.111 501.811 350.201 501.615 351.275C501.42 352.35 501.322 353.391 501.322 354.4C501.322 355.051 501.371 355.702 501.469 356.354C501.566 356.972 501.615 357.59 501.615 358.209C501.615 358.339 501.55 358.616 501.42 359.039C501.29 359.462 501.078 359.934 500.785 360.455C500.525 360.976 500.167 361.497 499.711 362.018C499.288 362.506 498.783 362.864 498.197 363.092C497.807 363.255 497.351 363.352 496.83 363.385C496.342 363.417 495.805 363.45 495.219 363.482C494.665 363.482 494.079 363.499 493.461 363.531C492.875 363.531 492.289 363.58 491.703 363.678C490.889 363.84 490.173 364.02 489.555 364.215C488.969 364.41 488.35 364.508 487.699 364.508C486.527 364.508 485.632 364.199 485.014 363.58C484.428 362.929 483.988 362.132 483.695 361.188C483.435 360.243 483.272 359.251 483.207 358.209C483.142 357.167 483.077 356.223 483.012 355.377C482.914 354.27 482.784 353.31 482.621 352.496C482.458 351.65 482.344 350.852 482.279 350.104C482.279 349.648 482.296 349.225 482.328 348.834C482.393 348.443 482.426 348.069 482.426 347.711C482.426 346.865 482.377 346.083 482.279 345.367C482.182 344.618 481.97 343.984 481.645 343.463C481.319 342.942 480.814 342.535 480.131 342.242C479.48 341.949 478.601 341.803 477.494 341.803C476.713 341.803 475.867 341.917 474.955 342.145C474.044 342.34 473.197 342.665 472.416 343.121C471.635 343.577 470.984 344.146 470.463 344.83C469.942 345.514 469.682 346.311 469.682 347.223C469.682 347.581 469.747 347.971 469.877 348.395C470.04 348.818 470.121 349.29 470.121 349.811C470.121 350.722 470.007 351.666 469.779 352.643C469.584 353.587 469.486 354.498 469.486 355.377C469.486 356.744 469.584 358.014 469.779 359.186C470.007 360.357 470.121 361.367 470.121 362.213C470.121 363.352 470.056 364.345 469.926 365.191C469.828 366.038 469.617 366.738 469.291 367.291C468.965 367.844 468.493 368.268 467.875 368.561C467.289 368.854 466.524 369 465.58 369C464.083 369 462.927 368.642 462.113 367.926C461.299 367.21 460.893 366.103 460.893 364.605C460.893 364.052 460.909 363.482 460.941 362.896C460.974 362.278 460.99 361.643 460.99 360.992C460.99 360.113 460.893 359.381 460.697 358.795C460.502 358.209 460.258 357.639 459.965 357.086C459.704 356.533 459.411 355.947 459.086 355.328C458.793 354.677 458.533 353.863 458.305 352.887C458.24 352.789 458.207 352.675 458.207 352.545C458.207 352.415 458.207 352.268 458.207 352.105C458.207 351.747 458.223 351.34 458.256 350.885C458.288 350.396 458.305 349.908 458.305 349.42C458.305 348.118 458.223 346.718 458.061 345.221C457.898 343.723 457.702 342.193 457.475 340.631C457.279 339.068 457.1 337.538 456.938 336.041C456.775 334.511 456.693 333.062 456.693 331.695C456.693 330.491 456.954 329.498 457.475 328.717C457.995 327.936 458.663 327.317 459.477 326.861C460.29 326.406 461.186 326.096 462.162 325.934C463.139 325.771 464.083 325.689 464.994 325.689C466.752 325.689 468.152 326.161 469.193 327.105C470.268 328.017 470.805 329.156 470.805 330.523C470.805 330.979 470.772 331.467 470.707 331.988C470.642 332.477 470.609 332.981 470.609 333.502C470.609 333.86 470.658 334.267 470.756 334.723C470.886 335.178 471.13 335.406 471.488 335.406C471.846 335.406 472.449 335.292 473.295 335.064C474.174 334.804 475.085 334.511 476.029 334.186C477.006 333.86 477.901 333.567 478.715 333.307C479.529 333.046 480.066 332.883 480.326 332.818C481.563 332.59 482.637 332.493 483.549 332.525C484.46 332.558 485.307 332.444 486.088 332.184C486.837 331.988 487.439 331.793 487.895 331.598C488.383 331.402 488.822 331.223 489.213 331.061C489.636 330.898 490.059 330.768 490.482 330.67C490.938 330.572 491.508 330.523 492.191 330.523C493.298 330.523 494.096 330.654 494.584 330.914C495.105 331.142 495.495 331.451 495.756 331.842C496.016 332.2 496.228 332.607 496.391 333.062C496.553 333.518 496.83 333.958 497.221 334.381C497.709 334.934 498.214 335.39 498.734 335.748C499.288 336.106 499.776 336.448 500.199 336.773C500.655 337.099 501.013 337.457 501.273 337.848C501.566 338.238 501.713 338.727 501.713 339.312C501.713 339.768 501.648 340.24 501.518 340.729C501.387 341.217 501.322 341.803 501.322 342.486C501.322 343.333 501.42 344.228 501.615 345.172C501.811 346.116 501.908 347.06 501.908 348.004Z" fill="white"/>
</svg>
