<svg width="51" height="20" viewBox="0 0 51 20" fill="none" xmlns="http://www.w3.org/2000/svg">
<path d="M14.0312 12.7383C14.0156 12.957 13.9766 13.1641 13.9141 13.3594C13.8516 13.5547 13.8203 13.75 13.8203 13.9453C13.8203 14.0391 13.8281 14.1602 13.8438 14.3086C13.8594 14.457 13.8672 14.6172 13.8672 14.7891C13.8672 15.0859 13.7969 15.3516 13.6562 15.5859C13.5156 15.8203 13.3359 16.0391 13.1172 16.2422C12.8984 16.4453 12.6523 16.6445 12.3789 16.8398C12.1133 17.0273 11.8477 17.2227 11.582 17.4258C11.3945 17.5742 11.2383 17.7227 11.1133 17.8711C10.9883 18.0195 10.8438 18.1523 10.6797 18.2695C10.5156 18.3867 10.3086 18.4805 10.0586 18.5508C9.80859 18.6289 9.46094 18.668 9.01562 18.668C8.77344 18.668 8.52344 18.6484 8.26562 18.6094C8.01562 18.5781 7.76562 18.5391 7.51562 18.4922C7.26562 18.4453 7.02344 18.4023 6.78906 18.3633C6.5625 18.332 6.35156 18.3164 6.15625 18.3164C5.99219 18.3164 5.83594 18.332 5.6875 18.3633C5.53906 18.3945 5.39062 18.4102 5.24219 18.4102C5.17969 18.4102 5.07031 18.3828 4.91406 18.3281C4.75781 18.2812 4.58984 18.2109 4.41016 18.1172C4.23047 18.0312 4.05078 17.9258 3.87109 17.8008C3.69141 17.668 3.54297 17.5195 3.42578 17.3555C3.31641 17.207 3.24609 17.0508 3.21484 16.8867C3.19141 16.7148 3.14062 16.5508 3.0625 16.3945C2.95312 16.1992 2.80859 16.0117 2.62891 15.832C2.45703 15.6523 2.30469 15.4375 2.17188 15.1875C2.05469 14.9609 1.95312 14.6875 1.86719 14.3672C1.78125 14.0469 1.68359 13.7305 1.57422 13.418C1.43359 13.0039 1.29297 12.6328 1.15234 12.3047C1.01953 11.9766 0.953125 11.6992 0.953125 11.4727C0.953125 11.2148 0.988281 10.9414 1.05859 10.6523C1.12891 10.3555 1.22266 10.082 1.33984 9.83203C1.45703 9.57422 1.58984 9.36328 1.73828 9.19922C1.89453 9.03516 2.05469 8.95312 2.21875 8.95312C2.30469 8.95312 2.39453 8.96875 2.48828 9C2.58203 9.03125 2.67969 9.04688 2.78125 9.04688C2.91406 9.03125 3.02344 8.99219 3.10938 8.92969C3.20312 8.86719 3.30078 8.83594 3.40234 8.83594C3.50391 8.83594 3.64844 8.85547 3.83594 8.89453C4.02344 8.92578 4.21484 8.96875 4.41016 9.02344C4.61328 9.07812 4.80078 9.13281 4.97266 9.1875C5.15234 9.24219 5.28516 9.29297 5.37109 9.33984C5.49609 9.40234 5.62891 9.51172 5.76953 9.66797C5.91016 9.82422 6.03906 9.99609 6.15625 10.1836C6.27344 10.3711 6.37109 10.5664 6.44922 10.7695C6.52734 10.9727 6.56641 11.1523 6.56641 11.3086C6.56641 11.3945 6.5625 11.4844 6.55469 11.5781C6.54688 11.6641 6.54297 11.75 6.54297 11.8359C6.54297 11.9922 6.57031 12.1523 6.625 12.3164C6.67969 12.4727 6.72656 12.6484 6.76562 12.8438C6.79688 13.0625 6.81641 13.2695 6.82422 13.4648C6.83984 13.6602 6.85938 13.8438 6.88281 14.0156C6.90625 14.1797 6.9375 14.3359 6.97656 14.4844C7.02344 14.6328 7.10156 14.7734 7.21094 14.9062C7.36719 15.1094 7.58594 15.2734 7.86719 15.3984C8.14844 15.5156 8.42578 15.5742 8.69922 15.5742C8.87109 15.5742 9.00781 15.5469 9.10938 15.4922C9.21875 15.4375 9.3125 15.3711 9.39062 15.293C9.46875 15.2148 9.54297 15.1367 9.61328 15.0586C9.69141 14.9727 9.78125 14.8984 9.88281 14.8359C10.0391 14.7422 10.1875 14.6719 10.3281 14.625C10.4688 14.5703 10.5938 14.5039 10.7031 14.4258C10.8125 14.3398 10.8984 14.2266 10.9609 14.0859C11.0234 13.9453 11.0547 13.7383 11.0547 13.4648C11.0547 13.2461 11.0117 13.0156 10.9258 12.7734C10.8477 12.5234 10.7969 12.2734 10.7734 12.0234C10.75 11.8047 10.7344 11.6211 10.7266 11.4727C10.7188 11.3164 10.7031 11.1719 10.6797 11.0391C10.6641 10.8984 10.6328 10.7617 10.5859 10.6289C10.5391 10.4883 10.457 10.3281 10.3398 10.1484C10.3086 10.1172 10.2383 10.0391 10.1289 9.91406C10.0195 9.78125 9.89062 9.64453 9.74219 9.50391C9.60156 9.36328 9.44922 9.23828 9.28516 9.12891C9.12109 9.01172 8.96875 8.95312 8.82812 8.95312C8.76562 8.95312 8.70312 8.95703 8.64062 8.96484C8.58594 8.97266 8.52734 8.97656 8.46484 8.97656C8.21484 8.97656 7.95703 8.92188 7.69141 8.8125C7.43359 8.70312 7.16797 8.57031 6.89453 8.41406C6.62109 8.25 6.34375 8.07812 6.0625 7.89844C5.78125 7.71875 5.5 7.55859 5.21875 7.41797C4.98438 7.30078 4.71875 7.19141 4.42188 7.08984C4.13281 6.98828 3.85938 6.875 3.60156 6.75C3.34375 6.625 3.12891 6.48047 2.95703 6.31641C2.78516 6.14453 2.69922 5.93359 2.69922 5.68359C2.69922 5.63672 2.70703 5.54297 2.72266 5.40234C2.74609 5.26172 2.77344 5.10156 2.80469 4.92188C2.83594 4.73438 2.875 4.53516 2.92188 4.32422C2.96875 4.10547 3.02344 3.89844 3.08594 3.70312C3.14844 3.5 3.21094 3.31641 3.27344 3.15234C3.34375 2.98828 3.41797 2.85938 3.49609 2.76562C3.60547 2.63281 3.74219 2.50391 3.90625 2.37891C4.07812 2.25391 4.24609 2.14453 4.41016 2.05078C4.57422 1.94922 4.71875 1.87109 4.84375 1.81641C4.97656 1.75391 5.0625 1.72266 5.10156 1.72266C5.17188 1.72266 5.23828 1.73047 5.30078 1.74609C5.37109 1.75391 5.44141 1.75781 5.51172 1.75781C5.66016 1.75781 5.78516 1.74219 5.88672 1.71094C5.99609 1.67188 6.08984 1.625 6.16797 1.57031C6.25391 1.51562 6.33594 1.46484 6.41406 1.41797C6.49219 1.36328 6.58203 1.31641 6.68359 1.27734C6.81641 1.22266 6.97656 1.19531 7.16406 1.19531C7.35938 1.1875 7.55078 1.16406 7.73828 1.125C7.95703 1.07812 8.23047 1.02344 8.55859 0.960938C8.89453 0.890625 9.23047 0.828125 9.56641 0.773438C9.91016 0.710938 10.2305 0.660156 10.5273 0.621094C10.8242 0.582031 11.0469 0.566406 11.1953 0.574219C11.2734 0.574219 11.3555 0.59375 11.4414 0.632812C11.5352 0.671875 11.6055 0.757813 11.6523 0.890625C11.7539 0.960938 11.8711 1.01172 12.0039 1.04297C12.1367 1.07422 12.2461 1.125 12.332 1.19531C12.4492 1.29688 12.5703 1.42969 12.6953 1.59375C12.8281 1.75781 12.9531 1.89844 13.0703 2.01562C13.1875 2.13281 13.2891 2.23828 13.375 2.33203C13.4688 2.41797 13.543 2.50391 13.5977 2.58984C13.6602 2.66797 13.7031 2.75391 13.7266 2.84766C13.7578 2.93359 13.7734 3.03906 13.7734 3.16406C13.7734 3.41406 13.7461 3.65625 13.6914 3.89062C13.6367 4.125 13.543 4.33594 13.4102 4.52344C13.2852 4.70312 13.1133 4.85156 12.8945 4.96875C12.6836 5.07812 12.4141 5.13281 12.0859 5.13281C11.8906 5.13281 11.6797 5.11328 11.4531 5.07422C11.2266 5.02734 11.0234 4.96875 10.8438 4.89844C10.75 4.86719 10.6562 4.81641 10.5625 4.74609C10.4688 4.67578 10.375 4.60547 10.2812 4.53516C10.1875 4.45703 10.0898 4.38281 9.98828 4.3125C9.88672 4.24219 9.77734 4.1875 9.66016 4.14844C9.54297 4.10938 9.39062 4.07422 9.20312 4.04297C9.01562 4.00391 8.82031 3.97266 8.61719 3.94922C8.42188 3.92578 8.23047 3.90625 8.04297 3.89062C7.85547 3.875 7.69922 3.86719 7.57422 3.86719C7.41016 3.86719 7.25 3.87891 7.09375 3.90234C6.9375 3.91797 6.79688 3.95703 6.67188 4.01953C6.55469 4.07422 6.45703 4.15234 6.37891 4.25391C6.30078 4.35547 6.26172 4.48828 6.26172 4.65234C6.26172 4.74609 6.27734 4.82812 6.30859 4.89844C6.34766 4.96875 6.39844 5.03516 6.46094 5.09766C6.53125 5.15234 6.61719 5.21094 6.71875 5.27344C6.82031 5.33594 6.9375 5.41016 7.07031 5.49609C7.1875 5.57422 7.30078 5.66016 7.41016 5.75391C7.52734 5.84766 7.64062 5.9375 7.75 6.02344C7.86719 6.10938 7.98438 6.19141 8.10156 6.26953C8.21875 6.34766 8.33984 6.41016 8.46484 6.45703C8.61328 6.50391 8.76562 6.53516 8.92188 6.55078C9.08594 6.55859 9.23047 6.57422 9.35547 6.59766C9.81641 6.70703 10.2461 6.86719 10.6445 7.07812C11.0508 7.28125 11.4258 7.51953 11.7695 7.79297C12.1133 8.06641 12.4219 8.36328 12.6953 8.68359C12.9766 8.99609 13.2227 9.31641 13.4336 9.64453C13.5352 9.80859 13.6172 9.95703 13.6797 10.0898C13.7422 10.2148 13.7891 10.3438 13.8203 10.4766C13.8516 10.6016 13.8711 10.7383 13.8789 10.8867C13.8867 11.0352 13.8906 11.2148 13.8906 11.4258C13.8906 11.668 13.9141 11.9023 13.9609 12.1289C14.0078 12.3555 14.0312 12.5586 14.0312 12.7383ZM26.2891 15.4805C26.2422 15.6914 26.1055 15.8789 25.8789 16.043C25.6602 16.1992 25.3906 16.332 25.0703 16.4414C24.7578 16.543 24.4141 16.6211 24.0391 16.6758C23.6641 16.7305 23.3008 16.7578 22.9492 16.7578C22.6836 16.7578 22.4727 16.7031 22.3164 16.5938C22.168 16.4844 22.0547 16.332 21.9766 16.1367C21.8984 15.9336 21.8477 15.6914 21.8242 15.4102C21.8086 15.1211 21.8008 14.8008 21.8008 14.4492C21.8008 14.0742 21.8086 13.6992 21.8242 13.3242C21.8398 12.9492 21.8477 12.6055 21.8477 12.293C21.8477 12.1836 21.8359 12.0625 21.8125 11.9297C21.7891 11.7891 21.7617 11.6484 21.7305 11.5078C21.707 11.3672 21.6836 11.2383 21.6602 11.1211C21.6367 10.9961 21.625 10.8906 21.625 10.8047C21.625 10.6953 21.6367 10.5703 21.6602 10.4297C21.6836 10.2812 21.6953 10.1406 21.6953 10.0078C21.6953 9.8125 21.6484 9.66016 21.5547 9.55078C21.4609 9.44141 21.3008 9.38672 21.0742 9.38672C20.9414 9.38672 20.8047 9.40625 20.6641 9.44531C20.5312 9.47656 20.3984 9.51953 20.2656 9.57422C20.1406 9.62109 20.0273 9.67188 19.9258 9.72656C19.8242 9.77344 19.7422 9.8125 19.6797 9.84375C19.5156 9.91406 19.3555 9.98828 19.1992 10.0664C19.0508 10.1445 18.918 10.2305 18.8008 10.3242C18.6836 10.4102 18.5898 10.5078 18.5195 10.6172C18.4492 10.7188 18.4141 10.8359 18.4141 10.9688C18.4141 11.125 18.4336 11.3164 18.4727 11.543C18.5195 11.7617 18.5547 11.9844 18.5781 12.2109C18.6016 12.4609 18.6094 12.707 18.6016 12.9492C18.5938 13.1914 18.6094 13.4102 18.6484 13.6055C18.6797 13.7773 18.7109 13.9258 18.7422 14.0508C18.7734 14.1758 18.8008 14.2969 18.8242 14.4141C18.8555 14.5234 18.8789 14.6367 18.8945 14.7539C18.9102 14.8711 18.918 15.0078 18.918 15.1641C18.918 15.3047 18.9297 15.4375 18.9531 15.5625C18.9844 15.6875 19.0156 15.8164 19.0469 15.9492C19.0859 16.082 19.1211 16.2188 19.1523 16.3594C19.1836 16.5 19.1992 16.6562 19.1992 16.8281C19.1992 17.1562 19.1133 17.4102 18.9414 17.5898C18.7773 17.7695 18.5547 17.9023 18.2734 17.9883C18 18.0742 17.6836 18.125 17.3242 18.1406C16.9648 18.1562 16.5977 18.1641 16.2227 18.1641C16.0352 18.1641 15.8906 18.1445 15.7891 18.1055C15.6953 18.0664 15.625 18 15.5781 17.9062C15.5312 17.8125 15.5039 17.6875 15.4961 17.5312C15.4883 17.3672 15.4844 17.1641 15.4844 16.9219C15.4844 16.7422 15.4883 16.5586 15.4961 16.3711C15.5117 16.1758 15.5273 15.9922 15.543 15.8203C15.5586 15.6484 15.5742 15.4922 15.5898 15.3516C15.6055 15.2109 15.6172 15.1016 15.625 15.0234C15.6328 14.8516 15.6445 14.6445 15.6602 14.4023C15.6836 14.1602 15.6992 13.9141 15.707 13.6641C15.7227 13.4062 15.7344 13.1641 15.7422 12.9375C15.7578 12.7031 15.7656 12.5117 15.7656 12.3633C15.7656 12.2617 15.7148 12.1797 15.6133 12.1172C15.5117 12.0469 15.3984 11.9727 15.2734 11.8945C15.1562 11.8086 15.0469 11.707 14.9453 11.5898C14.8438 11.4648 14.793 11.2969 14.793 11.0859C14.793 10.8984 14.8203 10.75 14.875 10.6406C14.9297 10.5312 14.9961 10.4492 15.0742 10.3945C15.1602 10.332 15.25 10.2852 15.3438 10.2539C15.4375 10.2148 15.5234 10.1719 15.6016 10.125C15.6875 10.0781 15.7578 10.0156 15.8125 9.9375C15.8672 9.85156 15.8945 9.73047 15.8945 9.57422C15.8945 9.30859 15.8555 9.01562 15.7773 8.69531C15.707 8.375 15.6719 8.01953 15.6719 7.62891C15.6719 7.25391 15.6875 6.87109 15.7188 6.48047C15.75 6.08984 15.7656 5.70703 15.7656 5.33203C15.7656 5.05859 15.7383 4.77734 15.6836 4.48828C15.6289 4.19922 15.6016 3.93359 15.6016 3.69141C15.6016 3.57422 15.6289 3.44141 15.6836 3.29297C15.7383 3.14453 15.8164 3.00391 15.918 2.87109C16.0195 2.73047 16.1445 2.61328 16.293 2.51953C16.4414 2.42578 16.6133 2.37891 16.8086 2.37891C16.9883 2.37891 17.1406 2.43359 17.2656 2.54297C17.3906 2.64453 17.4922 2.78125 17.5703 2.95312C17.6562 3.11719 17.7188 3.30859 17.7578 3.52734C17.8047 3.73828 17.8398 3.95703 17.8633 4.18359C17.8945 4.40234 17.9141 4.62109 17.9219 4.83984C17.9375 5.05078 17.957 5.23828 17.9805 5.40234C18.0117 5.65234 18.0391 5.94922 18.0625 6.29297C18.0938 6.62891 18.125 6.95312 18.1562 7.26562C18.1953 7.57031 18.2422 7.83203 18.2969 8.05078C18.3516 8.26953 18.4219 8.37891 18.5078 8.37891C18.5859 8.37891 18.6875 8.34375 18.8125 8.27344C18.9453 8.19531 19.082 8.10938 19.2227 8.01562C19.3633 7.92188 19.5039 7.82812 19.6445 7.73438C19.7852 7.64062 19.9023 7.57422 19.9961 7.53516C20.2461 7.42578 20.5508 7.33203 20.9102 7.25391C21.2695 7.16797 21.707 7.125 22.2227 7.125C22.5195 7.125 22.7734 7.14844 22.9844 7.19531C23.1953 7.23438 23.375 7.29297 23.5234 7.37109C23.6797 7.44922 23.8164 7.53906 23.9336 7.64062C24.0508 7.74219 24.1641 7.85547 24.2734 7.98047C24.3906 8.09766 24.5117 8.22266 24.6367 8.35547C24.7695 8.48047 24.9258 8.60547 25.1055 8.73047C25.1758 8.77734 25.2461 8.82031 25.3164 8.85938C25.3867 8.89062 25.4531 8.92969 25.5156 8.97656C25.5781 9.01562 25.6289 9.06641 25.668 9.12891C25.707 9.18359 25.7266 9.26172 25.7266 9.36328C25.7266 9.45703 25.7188 9.5625 25.7031 9.67969C25.6875 9.78906 25.6797 9.89844 25.6797 10.0078C25.6797 10.1719 25.707 10.3477 25.7617 10.5352C25.8164 10.7227 25.875 10.918 25.9375 11.1211C26.0078 11.3242 26.0703 11.5391 26.125 11.7656C26.1797 11.9844 26.207 12.207 26.207 12.4336C26.207 12.5117 26.1914 12.6055 26.1602 12.7148C26.1289 12.8242 26.0938 12.9297 26.0547 13.0312C26.0234 13.1328 25.9922 13.2227 25.9609 13.3008C25.9375 13.3711 25.9258 13.4102 25.9258 13.418C25.9258 13.5352 25.9648 13.6484 26.043 13.7578C26.1211 13.8594 26.1602 13.9766 26.1602 14.1094C26.1602 14.1875 26.1562 14.2617 26.1484 14.332C26.1406 14.3945 26.1367 14.457 26.1367 14.5195C26.1367 14.6523 26.1641 14.7734 26.2188 14.8828C26.2812 14.9922 26.3125 15.1211 26.3125 15.2695C26.3125 15.3086 26.3125 15.3438 26.3125 15.375C26.3125 15.4062 26.3047 15.4414 26.2891 15.4805ZM38.3594 10.6758C38.375 10.8555 38.3867 11.0391 38.3945 11.2266C38.4023 11.4062 38.4062 11.5938 38.4062 11.7891C38.4062 12.3438 38.3789 12.9062 38.3242 13.4766C38.2695 14.0391 38.207 14.5859 38.1367 15.1172C38.1133 15.2891 38.082 15.4648 38.043 15.6445C38.0117 15.8164 37.9961 15.9688 37.9961 16.1016C37.9961 16.3906 38.0234 16.6719 38.0781 16.9453C38.1328 17.2109 38.1602 17.457 38.1602 17.6836C38.1602 17.7305 38.1289 17.8359 38.0664 18C38.0039 18.1641 37.9023 18.332 37.7617 18.5039C37.6289 18.6758 37.4531 18.8281 37.2344 18.9609C37.0234 19.1016 36.7656 19.1719 36.4609 19.1719C36.1094 19.1719 35.8711 19.0703 35.7461 18.8672C35.6289 18.6641 35.5703 18.4062 35.5703 18.0938C35.5703 17.875 35.5898 17.6406 35.6289 17.3906C35.668 17.1328 35.7109 16.8711 35.7578 16.6055C35.5781 16.6445 35.3984 16.7188 35.2188 16.8281C35.0469 16.9375 34.8828 17.0391 34.7266 17.1328C34.3828 17.3359 34.0391 17.5508 33.6953 17.7773C33.3594 18.0039 32.9922 18.2109 32.5938 18.3984C32.1953 18.5859 31.7578 18.7422 31.2812 18.8672C30.8125 18.9922 30.2734 19.0547 29.6641 19.0547C29.6484 19.0547 29.5859 19.0547 29.4766 19.0547C29.375 19.0625 29.2539 19.0625 29.1133 19.0547C28.9727 19.0469 28.8242 19.0273 28.668 18.9961C28.5195 18.9648 28.3867 18.9141 28.2695 18.8438C28.0977 18.6719 27.9297 18.457 27.7656 18.1992C27.6094 17.9492 27.4688 17.7031 27.3438 17.4609C27.2266 17.2109 27.1328 16.9922 27.0625 16.8047C26.9922 16.6172 26.957 16.5039 26.957 16.4648C26.9414 16.4258 26.9336 16.3906 26.9336 16.3594C26.9336 16.3203 26.9336 16.2812 26.9336 16.2422C26.9336 16.0781 26.9453 15.9102 26.9688 15.7383C26.9922 15.5586 27.0195 15.3906 27.0508 15.2344C27.082 15.0703 27.1094 14.9336 27.1328 14.8242C27.1562 14.707 27.168 14.6289 27.168 14.5898C27.168 14.3945 27.1523 14.207 27.1211 14.0273C27.0898 13.8398 27.0742 13.6367 27.0742 13.418C27.0742 13.3164 27.0781 13.2109 27.0859 13.1016C27.1016 12.9844 27.1289 12.8633 27.168 12.7383C27.168 12.7305 27.1875 12.6797 27.2266 12.5859C27.2656 12.4922 27.3086 12.3906 27.3555 12.2812C27.4102 12.1719 27.4609 12.0664 27.5078 11.9648C27.5625 11.8633 27.6016 11.8047 27.625 11.7891C27.6797 11.7422 27.7539 11.7031 27.8477 11.6719C27.9414 11.6406 28.0469 11.6094 28.1641 11.5781C28.2812 11.5469 28.3984 11.5156 28.5156 11.4844C28.6406 11.4531 28.7617 11.4102 28.8789 11.3555C29.0586 11.2695 29.2188 11.1602 29.3594 11.0273C29.5078 10.8945 29.6406 10.8047 29.7578 10.7578C29.8359 10.7188 29.9414 10.6875 30.0742 10.6641C30.2148 10.6406 30.3594 10.5977 30.5078 10.5352C30.6094 10.5039 30.7344 10.4609 30.8828 10.4062C31.0312 10.3438 31.1875 10.2891 31.3516 10.2422C31.5234 10.1875 31.6953 10.1406 31.8672 10.1016C32.0391 10.0547 32.2031 10.0234 32.3594 10.0078C32.4297 10.0078 32.5156 10.0195 32.6172 10.043C32.7266 10.0664 32.8555 10.0781 33.0039 10.0781C33.1133 10.0781 33.2461 10.0547 33.4023 10.0078C33.5586 9.96094 33.7461 9.9375 33.9648 9.9375C34.1836 9.9375 34.3945 9.95312 34.5977 9.98438C34.8008 10.0156 34.957 10.0312 35.0664 10.0312C35.1523 10.0312 35.2031 10.0078 35.2188 9.96094C35.2422 9.90625 35.2539 9.84375 35.2539 9.77344C35.2539 9.65625 35.2305 9.51953 35.1836 9.36328C35.1367 9.20703 35.082 9.05469 35.0195 8.90625C34.957 8.75781 34.8984 8.62891 34.8438 8.51953C34.7891 8.41016 34.75 8.33984 34.7266 8.30859C34.6094 8.16016 34.4766 8.04688 34.3281 7.96875C34.1875 7.89062 34.0586 7.85156 33.9414 7.85156C33.8164 7.85156 33.6914 7.86719 33.5664 7.89844C33.4492 7.92969 33.3164 7.94531 33.168 7.94531C33.0586 7.94531 32.9453 7.9375 32.8281 7.92188C32.7188 7.90625 32.6094 7.89844 32.5 7.89844C32.2344 7.89844 31.9258 7.96484 31.5742 8.09766C31.2305 8.23047 30.8828 8.38281 30.5312 8.55469C30.1875 8.72656 29.8594 8.89062 29.5469 9.04688C29.2422 9.19531 28.9961 9.29297 28.8086 9.33984C28.707 9.36328 28.6016 9.38672 28.4922 9.41016C28.3828 9.42578 28.2773 9.43359 28.1758 9.43359C28.1133 9.43359 28.0234 9.40234 27.9062 9.33984C27.7969 9.26953 27.6875 9.18359 27.5781 9.08203C27.4688 8.98047 27.3711 8.86719 27.2852 8.74219C27.207 8.60938 27.168 8.48047 27.168 8.35547C27.168 8.16797 27.2188 8.01562 27.3203 7.89844C27.4219 7.77344 27.5469 7.66797 27.6953 7.58203C27.8438 7.49609 28.0039 7.42188 28.1758 7.35938C28.3555 7.28906 28.5156 7.21094 28.6562 7.125C28.8359 7.01562 29.0469 6.88672 29.2891 6.73828C29.5312 6.58984 29.7383 6.44922 29.9102 6.31641C30.0898 6.16797 30.2188 6.03516 30.2969 5.91797C30.375 5.79297 30.4688 5.69922 30.5781 5.63672C30.6875 5.57422 30.8594 5.51562 31.0938 5.46094C31.3281 5.40625 31.5469 5.34766 31.75 5.28516C31.8125 5.26172 31.8984 5.22656 32.0078 5.17969C32.125 5.13281 32.2422 5.08984 32.3594 5.05078C32.4844 5.01172 32.6016 4.97656 32.7109 4.94531C32.8281 4.91406 32.918 4.89844 32.9805 4.89844H33.0273C33.1758 4.95312 33.3438 4.99609 33.5312 5.02734C33.7188 5.05078 33.9141 5.07422 34.1172 5.09766C34.3281 5.12109 34.5352 5.14844 34.7383 5.17969C34.9492 5.20312 35.1484 5.23828 35.3359 5.28516C35.3984 5.30078 35.457 5.33594 35.5117 5.39062C35.5664 5.4375 35.625 5.47266 35.6875 5.49609C35.9766 5.58203 36.2188 5.67188 36.4141 5.76562C36.6094 5.85156 36.7812 5.99219 36.9297 6.1875C37.0781 6.375 37.2148 6.64844 37.3398 7.00781C37.4727 7.35938 37.6172 7.83984 37.7734 8.44922C37.8047 8.58984 37.8633 8.71875 37.9492 8.83594C38.0352 8.95312 38.0977 9.07031 38.1367 9.1875C38.1992 9.38281 38.2461 9.62109 38.2773 9.90234C38.3164 10.1758 38.3438 10.4336 38.3594 10.6758ZM35.5469 13.8047C35.5859 13.7656 35.6094 13.6797 35.6172 13.5469C35.6328 13.4062 35.6406 13.25 35.6406 13.0781C35.6406 12.875 35.6367 12.7109 35.6289 12.5859C35.6211 12.4531 35.6055 12.3516 35.582 12.2812C35.5586 12.2109 35.5273 12.1641 35.4883 12.1406C35.4492 12.1094 35.3984 12.0938 35.3359 12.0938C35.2891 12.0938 35.2461 12.0977 35.207 12.1055C35.1758 12.1133 35.1445 12.1211 35.1133 12.1289C35.082 12.1445 35.0508 12.1562 35.0195 12.1641C34.8945 12.1484 34.7773 12.1406 34.668 12.1406C34.5664 12.1406 34.4609 12.1406 34.3516 12.1406C34.1328 12.1406 33.9297 12.1523 33.7422 12.1758C33.5625 12.1992 33.3828 12.2305 33.2031 12.2695C33.0312 12.3086 32.8594 12.3516 32.6875 12.3984C32.5156 12.4453 32.332 12.4883 32.1367 12.5273C31.8555 12.5977 31.5977 12.6445 31.3633 12.668C31.1289 12.6914 30.9258 12.7383 30.7539 12.8086C30.582 12.8789 30.4492 12.9922 30.3555 13.1484C30.2617 13.2969 30.2148 13.5312 30.2148 13.8516C30.2148 14.1797 30.3008 14.4023 30.4727 14.5195C30.6445 14.6289 30.8945 14.6836 31.2227 14.6836C31.3242 14.6836 31.4414 14.668 31.5742 14.6367C31.707 14.5977 31.8477 14.5547 31.9961 14.5078C32.1523 14.4609 32.3086 14.4141 32.4648 14.3672C32.6289 14.3125 32.793 14.2656 32.957 14.2266C33.0742 14.2031 33.1992 14.1797 33.332 14.1562C33.4727 14.125 33.6094 14.0977 33.7422 14.0742C33.8828 14.0508 34.0117 14.0273 34.1289 14.0039C34.2539 13.9805 34.3594 13.9609 34.4453 13.9453C34.5 13.9375 34.5859 13.9297 34.7031 13.9219C34.8203 13.9062 34.9375 13.8945 35.0547 13.8867C35.1719 13.8711 35.2773 13.8594 35.3711 13.8516C35.4727 13.8359 35.5312 13.8203 35.5469 13.8047ZM50.418 12.9609C50.418 13.2266 50.3945 13.4883 50.3477 13.7461C50.3008 14.0039 50.2773 14.2539 50.2773 14.4961C50.2773 14.6523 50.2891 14.8086 50.3125 14.9648C50.3359 15.1133 50.3477 15.2617 50.3477 15.4102C50.3477 15.4414 50.332 15.5078 50.3008 15.6094C50.2695 15.7109 50.2188 15.8242 50.1484 15.9492C50.0859 16.0742 50 16.1992 49.8906 16.3242C49.7891 16.4414 49.668 16.5273 49.5273 16.582C49.4336 16.6211 49.3242 16.6445 49.1992 16.6523C49.082 16.6602 48.9531 16.668 48.8125 16.6758C48.6797 16.6758 48.5391 16.6797 48.3906 16.6875C48.25 16.6875 48.1094 16.6992 47.9688 16.7227C47.7734 16.7617 47.6016 16.8047 47.4531 16.8516C47.3125 16.8984 47.1641 16.9219 47.0078 16.9219C46.7266 16.9219 46.5117 16.8477 46.3633 16.6992C46.2227 16.543 46.1172 16.3516 46.0469 16.125C45.9844 15.8984 45.9453 15.6602 45.9297 15.4102C45.9141 15.1602 45.8984 14.9336 45.8828 14.7305C45.8594 14.4648 45.8281 14.2344 45.7891 14.0391C45.75 13.8359 45.7227 13.6445 45.707 13.4648C45.707 13.3555 45.7109 13.2539 45.7188 13.1602C45.7344 13.0664 45.7422 12.9766 45.7422 12.8906C45.7422 12.6875 45.7305 12.5 45.707 12.3281C45.6836 12.1484 45.6328 11.9961 45.5547 11.8711C45.4766 11.7461 45.3555 11.6484 45.1914 11.5781C45.0352 11.5078 44.8242 11.4727 44.5586 11.4727C44.3711 11.4727 44.168 11.5 43.9492 11.5547C43.7305 11.6016 43.5273 11.6797 43.3398 11.7891C43.1523 11.8984 42.9961 12.0352 42.8711 12.1992C42.7461 12.3633 42.6836 12.5547 42.6836 12.7734C42.6836 12.8594 42.6992 12.9531 42.7305 13.0547C42.7695 13.1562 42.7891 13.2695 42.7891 13.3945C42.7891 13.6133 42.7617 13.8398 42.707 14.0742C42.6602 14.3008 42.6367 14.5195 42.6367 14.7305C42.6367 15.0586 42.6602 15.3633 42.707 15.6445C42.7617 15.9258 42.7891 16.168 42.7891 16.3711C42.7891 16.6445 42.7734 16.8828 42.7422 17.0859C42.7188 17.2891 42.668 17.457 42.5898 17.5898C42.5117 17.7227 42.3984 17.8242 42.25 17.8945C42.1094 17.9648 41.9258 18 41.6992 18C41.3398 18 41.0625 17.9141 40.8672 17.7422C40.6719 17.5703 40.5742 17.3047 40.5742 16.9453C40.5742 16.8125 40.5781 16.6758 40.5859 16.5352C40.5938 16.3867 40.5977 16.2344 40.5977 16.0781C40.5977 15.8672 40.5742 15.6914 40.5273 15.5508C40.4805 15.4102 40.4219 15.2734 40.3516 15.1406C40.2891 15.0078 40.2188 14.8672 40.1406 14.7188C40.0703 14.5625 40.0078 14.3672 39.9531 14.1328C39.9375 14.1094 39.9297 14.082 39.9297 14.0508C39.9297 14.0195 39.9297 13.9844 39.9297 13.9453C39.9297 13.8594 39.9336 13.7617 39.9414 13.6523C39.9492 13.5352 39.9531 13.418 39.9531 13.3008C39.9531 12.9883 39.9336 12.6523 39.8945 12.293C39.8555 11.9336 39.8086 11.5664 39.7539 11.1914C39.707 10.8164 39.6641 10.4492 39.625 10.0898C39.5859 9.72266 39.5664 9.375 39.5664 9.04688C39.5664 8.75781 39.6289 8.51953 39.7539 8.33203C39.8789 8.14453 40.0391 7.99609 40.2344 7.88672C40.4297 7.77734 40.6445 7.70312 40.8789 7.66406C41.1133 7.625 41.3398 7.60547 41.5586 7.60547C41.9805 7.60547 42.3164 7.71875 42.5664 7.94531C42.8242 8.16406 42.9531 8.4375 42.9531 8.76562C42.9531 8.875 42.9453 8.99219 42.9297 9.11719C42.9141 9.23438 42.9062 9.35547 42.9062 9.48047C42.9062 9.56641 42.918 9.66406 42.9414 9.77344C42.9727 9.88281 43.0312 9.9375 43.1172 9.9375C43.2031 9.9375 43.3477 9.91016 43.5508 9.85547C43.7617 9.79297 43.9805 9.72266 44.207 9.64453C44.4414 9.56641 44.6562 9.49609 44.8516 9.43359C45.0469 9.37109 45.1758 9.33203 45.2383 9.31641C45.5352 9.26172 45.793 9.23828 46.0117 9.24609C46.2305 9.25391 46.4336 9.22656 46.6211 9.16406C46.8008 9.11719 46.9453 9.07031 47.0547 9.02344C47.1719 8.97656 47.2773 8.93359 47.3711 8.89453C47.4727 8.85547 47.5742 8.82422 47.6758 8.80078C47.7852 8.77734 47.9219 8.76562 48.0859 8.76562C48.3516 8.76562 48.543 8.79688 48.6602 8.85938C48.7852 8.91406 48.8789 8.98828 48.9414 9.08203C49.0039 9.16797 49.0547 9.26562 49.0938 9.375C49.1328 9.48438 49.1992 9.58984 49.293 9.69141C49.4102 9.82422 49.5312 9.93359 49.6562 10.0195C49.7891 10.1055 49.9062 10.1875 50.0078 10.2656C50.1172 10.3438 50.2031 10.4297 50.2656 10.5234C50.3359 10.6172 50.3711 10.7344 50.3711 10.875C50.3711 10.9844 50.3555 11.0977 50.3242 11.2148C50.293 11.332 50.2773 11.4727 50.2773 11.6367C50.2773 11.8398 50.3008 12.0547 50.3477 12.2812C50.3945 12.5078 50.418 12.7344 50.418 12.9609Z" fill="white"/>
</svg>
